<?xml version="1.0" standalone="no"?><!DOCTYPE svg PUBLIC "-//W3C//DTD SVG 1.1//EN" "http://www.w3.org/Graphics/SVG/1.1/DTD/svg11.dtd"><svg t="1579184098503" class="icon" viewBox="0 0 1024 1024" version="1.1" xmlns="http://www.w3.org/2000/svg" p-id="1682" width="200" height="200" xmlns:xlink="http://www.w3.org/1999/xlink"><defs><style type="text/css"></style></defs><path d="M99.424 608.832l6.144 17.472c14.784 33.248 34.24 48.256 64.064 45.344a713.6 713.6 0 0 1 8.352-15.2l0.384-0.64c6.816-12.192 9.696-17.504 11.872-22.24a266.848 266.848 0 0 1-20.672-66.048c-1.856-10.208-3.2-20.32-4.192-31.136-0.384-4.16-0.736-8.256-1.056-12.96l-0.736-10.752-0.064-0.736c-8.64-0.928-19.712 1.856-34.88 11.168-27.296 17.696-39.36 56.096-29.216 85.76z m63.264-106.176a38.528 38.528 0 0 0-0.096-0.736l0.096 0.736z m32.128 140.16z m-2.656-13.888zM94.144 469.12c38.4-23.776 73.056-26.112 101.44-14.144 4.992 2.08 6.784 3.104 11.84 6.112 3.296 1.984 6.176 4.512 8.576 7.52 8.256 10.368 9.28 16.608 10.88 39.552 3.616 50.784 7.712 73.536 23.552 104.096 8.768 15.456 6.176 28.224-1.696 46.08-3.424 7.68-6.592 13.6-15.104 28.832-7.648 13.632-10.912 19.904-12.96 24.96a31.936 31.936 0 0 1-21.888 19.136c-70.72 17.728-123.104-14.336-152.608-81.12l-7.2-20.128c-19.52-57.28 2.336-126.88 55.168-160.896zM924.448 608.832l-6.176 17.472c-14.784 33.248-34.24 48.256-64.064 45.344a713.6 713.6 0 0 0-8.32-15.2l-0.416-0.64c-6.816-12.192-9.696-17.504-11.84-22.24a266.848 266.848 0 0 0 20.64-66.048c1.856-10.208 3.2-20.32 4.192-31.136 0.384-4.16 0.736-8.256 1.056-12.96l0.768-10.752 0.032-0.736c8.64-0.928 19.744 1.856 34.88 11.168 27.328 17.696 39.36 56.096 29.248 85.76z m-63.264-106.176a38.528 38.528 0 0 1 0.096-0.736l-0.096 0.736z m-32.16 140.16z m2.656-13.888z m98.048-159.84c-38.4-23.776-73.088-26.112-101.44-14.144a74.88 74.88 0 0 0-11.872 6.112 31.936 31.936 0 0 0-8.576 7.52c-8.256 10.368-9.28 16.608-10.88 39.552-3.584 50.784-7.712 73.536-23.52 104.096-8.8 15.456-6.208 28.224 1.696 46.08 3.392 7.68 6.56 13.6 15.104 28.832 7.616 13.632 10.88 19.904 12.928 24.96 3.84 9.536 11.968 16.64 21.888 19.136 70.72 17.728 123.104-14.336 152.64-81.12l7.168-20.128c19.552-57.28-2.336-126.88-55.136-160.896z" fill="#636363" p-id="1683"></path><path d="M843.104 618.688c15.008 32.128 20.896 62.208 20.896 90.176 0 63.36-31.232 117.632-82.208 163.488-14.08 12.672-29.024 24.032-44.512 34.4-10.176 6.784-14.848 9.6-28.8 17.728-82.816 47.36-310.144 47.36-392.736 0.128a416.96 416.96 0 0 1-34.24-21.12c-18.24-12.48-35.52-26.432-51.264-42.08C186.304 817.76 160 766.912 160 708.864c0-22.336 8.064-53.184 22.816-84.8-21.344-65.92-28.992-135.456-10.496-210.368 23.136-93.504 65.28-147.2 132.864-196.672 45.12-32.256 85.12-46.848 137.056-54.688 3.072-8.512 4.256-17.76 3.776-27.584a101.92 101.92 0 0 0-5.632-28.64c-8.992-27.04 19.2-51.488 44.704-38.72 18.144 9.088 77.76 59.488 105.536 95.744 50.368 8.64 88.96 23.296 132.8 54.72 62.528 44.256 105.76 102.08 129.216 196.768a359.776 359.776 0 0 1-9.536 204.064z m-648.96 21.472l2.72 2.176a77.216 77.216 0 0 1-1.888-1.536l-0.864-0.64z m54.912-33.824a32 32 0 0 1-0.576 29.696C232.512 665.088 224 693.792 224 708.864c0 38.752 18.464 74.496 51.36 107.136 22.592 22.464 45.344 38.048 71.904 52.928 63.168 36.096 266.304 36.096 329.216 0.128 12.576-7.36 16.512-9.696 25.28-15.552 13.088-8.736 25.6-18.24 37.248-28.736C777.728 789.92 800 751.2 800 708.864c0-21.76-5.312-45.92-19.904-73.12a32 32 0 0 1-1.6-26.816c19.36-49.28 28.32-113.6 12.032-178.816-19.52-78.816-53.408-124.16-104.224-160.128-38.336-27.488-70.272-38.592-117.76-45.568a32 32 0 0 1-26.816-25.664c0.32 2.432 0.544 3.008 0.768 3.424a133.984 133.984 0 0 0-8.288-9.28 486.304 486.304 0 0 0-26.976-25.504 124.16 124.16 0 0 1-17.152 41.728 32 32 0 0 1-23.136 14.464c-50.72 6.08-84.608 16.96-124.256 45.28-56.192 41.152-89.184 83.2-108.256 160.224-14.496 58.656-9.248 114.56 6.528 166.656 3.232 2.88 5.728 5.76 8.096 10.56z" fill="#636363" p-id="1684"></path><path d="M672 512c-35.808 0-64-28.448-64-64s28.192-64 64-64 64 28.448 64 64-29.28 64-64 64z m-256-64c0 35.552-28.192 64-64 64s-64-28.448-64-64 28.192-64 64-64 64 28.448 64 64z" fill="#636363" p-id="1685"></path></svg>